<?xml version="1.0" encoding="UTF-8"?>
<!DOCTYPE svg PUBLIC "-//W3C//DTD SVG 1.1//EN" "http://www.w3.org/Graphics/SVG/1.1/DTD/svg11.dtd">
<!-- Creator: CorelDRAW 2019 (64-Bit) -->
<svg xmlns="http://www.w3.org/2000/svg" xml:space="preserve" width="200mm" height="200mm" version="1.1" style="shape-rendering:geometricPrecision; text-rendering:geometricPrecision; image-rendering:optimizeQuality; fill-rule:evenodd; clip-rule:evenodd"
viewBox="0 0 20000 20000"
 xmlns:xlink="http://www.w3.org/1999/xlink">
 <defs>
  <style type="text/css">
   <![CDATA[
    .fil0 {fill:#855400}
   ]]>
  </style>
 </defs>
 <g id="Layer_x0020_1">
  <metadata id="CorelCorpID_0Corel-Layer"/>
  <g>
   <path class="fil0" d="M9992.9 2401.38l1468.87 4790.5 5009.96 -83.37 -4102.15 2877.29 1627.46 4739.03 -4004.14 -3012.25 -4004.12 3012.25 1627.46 -4739 -4102.19 -2877.32 5009.95 83.37 1468.9 -4790.5zm9271.38 11103.47c-453.46,1294.71 -866.48,1229.41 -1431.38,1441.85l552.1 356.31c-377.51,567.09 -813.28,1108.84 -1313.59,1609.11 -500.25,500.3 -1041.97,936.06 -1609.07,1313.58l-543.57 -842.28c517.85,-344.8 1004.41,-738.48 1444.96,-1178.98 440.53,-440.55 834.22,-927.13 1179.02,-1445.02l231.43 149.38c59.5,-344.34 233.22,-639.16 537.95,-887.45 251.6,-205.03 576.73,-246.16 952.15,-516.5zm-16142.59 -7973.52c87.7,114.97 21.83,314.37 -70.96,385.76 -92.78,71.39 -127.77,66.34 -193.74,64.68 -96.06,-99.54 -237.69,-187.64 -409.97,-254.63 44.47,-133.45 71.87,-263.93 82.51,-384.67 -138.2,37.01 -285.55,98.9 -431.57,184.03 27.19,-153.42 34.63,-300.64 24.12,-432.99 -121.11,55.45 -246.46,133.28 -367.97,230.96 -31.58,-13.38 -62.67,-25.02 -93.38,-34.89 -0.95,-1.26 62.55,81.99 -2.93,-3.78 -65.48,-85.78 -96.04,-417 75.57,-549.1 94.94,-73.01 212.69,-96.14 320.91,-73.37 19.04,-79.44 24.48,-123.2 138.69,-211.06 114.2,-87.86 419.03,-39.95 479.1,38.8 60.08,78.74 22.59,33.2 31.14,50.89 8.07,-7.64 16.55,-15.03 25.58,-21.94 127.13,-97.85 305.49,-79.83 390.54,31.63 85.05,111.46 59.7,266.46 -47.27,366.63 76.27,2 148.38,34.55 195.44,96.16 87.73,114.97 55.89,288.16 -70.95,385.75 -47.71,36.74 -102.16,57.63 -156.3,63.26 31.34,16.02 59.16,38.73 81.44,67.88zm4926.23 -4962.46c57.66,-246.11 368.79,-411.07 564.95,-387.42 196.17,23.65 235.9,75.87 310.95,162.46 71.61,-25.7 151.42,-35.89 233.2,-26.01 246.03,29.63 418,228.85 382.86,443.45 -1.2,7.03 -2.57,13.97 -4.13,20.87 164.27,40.98 273.42,182.8 248.52,334.6 -20.16,123.08 -122.9,218.98 -252.2,251.19 31.28,56.11 44.37,120.71 33.51,187.07 -29.12,177.51 -308.45,291.34 -422.28,277.62 -113.83,-13.72 -47.42,-7.86 -69.63,-14.47 -0.15,1.14 14.25,-86.74 -0.53,3.44 -14.77,90.18 -296.8,295.9 -426.28,280.28 -129.49,-15.62 -102.82,-22.58 -145.97,-45.93 -5.12,111.53 -37.36,206.5 -99.18,275.34l-0.05 -13.78c-7.37,-248.61 -321.73,-450.86 -742.58,-504.25 91.13,36.24 161.86,82.58 204.59,134.3 -49.35,30.85 -110.7,57.21 -180.53,77.66 175.99,124.33 298.78,270.98 340.34,399.33 -141.26,30.07 -343.8,-3.2 -551.11,-96.57 25.26,86.13 36.49,167.11 32.58,236.54 -119.49,-17.77 -267,-117.17 -398.96,-275.37 -74.48,115.41 -209.4,179.18 -345.14,174.86 0.19,1.17 -12.55,-90.05 0.55,3.57 13.09,93.62 -187.58,371.58 -326.26,391.54 -138.69,19.96 -141.11,1.47 -202.47,-22.11 12.21,98.36 -2.12,187.95 -46.25,262.12 -0.92,-4.44 20.38,78.76 -3.02,-13.37 -23.4,-92.13 -262.81,-293.92 -554.94,-319.82 -31.27,47.66 -73.66,96.35 -125.03,143.63 222.45,34.98 405.38,115.44 503.76,216.43 -118.35,93.57 -323.53,156.2 -560.93,164.76 63.54,69.02 111.56,139.64 140.04,206.46 -133.78,43.12 -347.21,7.58 -568.99,-105.29 -52.31,101.51 -147.51,178.06 -256.92,209.74 0.46,1.08 -35.35,-81.31 1.48,3.23 36.83,84.54 -72.51,405.08 -207.96,471.05 -135.45,65.97 -171.14,50.77 -249.8,35.08 74.67,121.71 103.93,244.76 76.22,357 -130.03,-235.42 -484.19,-204.61 -703.08,-148.24 36.49,-1.21 69.83,1.79 99.31,9.04 -21.36,54.66 -55.09,112.95 -99.33,171.57 217.4,-5.37 405.14,39.34 516.13,118.19 -96.2,109.45 -280.27,204.53 -504.35,253.85 72.34,54.53 130.24,113.3 168.87,171.87 -107.71,57.8 -287.89,66.17 -490.93,17.04 42.67,131.77 -7.22,289.96 -133.5,387.12 -18.48,14.26 -37.9,26.55 -57.82,36.91 119.98,153.58 60.39,369.72 -86.12,482.43 -54.8,42.25 -116.86,67.55 -179.12,76.71 56.4,76.27 86.47,157.68 84.49,240.22 -2.88,-3.25 74.35,77.54 -8.83,-9.71 -83.18,-87.25 -361.9,-156.76 -639.29,34.34 22.5,-6.74 44.1,-11.06 64.68,-12.94 -2.3,58.09 -15.09,123.62 -37.56,192.79 201.88,-75.27 392.2,-94.07 521.69,-56.07 -54.76,133.61 -196.42,282.17 -390.39,400.78 85.37,27.74 158.57,64.06 213.75,106.46 -92.96,100.57 -293.02,171.88 -536.86,179.87 23.14,111.07 -2.64,229.09 -66.99,322.04l3.1 1.56c161.17,83.71 193.27,364.65 133.66,492.41 -59.62,127.76 -78.49,122.34 -133.03,160.13 87.61,43.66 152.97,104.36 188.68,181.16 -3.98,-1.65 99.43,35.86 -12.16,-4.83 -111.6,-40.69 -326.5,67.99 -527.8,333.07l5.47 -2.61c17.64,55.38 28.04,121.35 30.55,194.02 164.02,-139.7 336.49,-222.33 471.14,-230.87 -5.81,144.26 -88.2,332.3 -230.03,510.01 89.72,-3.08 170.99,6.09 237.27,27.04 -54.96,130.88 -338.02,312.95 -468.08,362.2 -130.06,49.25 -41.54,15.07 -62.35,21.88 22.11,85.05 13.35,176.21 -22.6,256.16 1.17,0.24 -84.25,-21.68 3.39,0.81 87.64,22.5 260.51,301.31 227.68,431.34 -32.84,130.02 -49.93,125.45 -93.16,171.19 91.51,25.02 165.45,70.26 215.02,136.31 -224.61,-41.89 -405.45,195.64 -495.92,368.43 32.33,46.01 61.25,103.14 85.29,168.32 111.93,-184.11 249.75,-316.69 374.97,-367.01 39.76,138.84 20.43,343.22 -58.45,556.45 84.2,-31.07 164.25,-47.86 233.72,-48.71 -9.64,122.39 -101.39,279.65 -254.75,424.15 56.01,79.34 76.41,179.82 59.43,275.01 1.16,-0.07 -84.09,-0.07 3.39,-0.07 87.49,0 315.49,217.64 315.49,346.14 0,128.5 -17.08,128.35 -46.76,181.14 91.69,1.4 171.7,25.75 233.78,75.25 -237.42,17.23 -349.58,314.1 -388.71,511.01 26.04,28.99 51.25,62.29 75.15,99.19 74.16,-194.05 184.21,-344.5 298.16,-415.27 66.95,123.01 88.57,318.71 52.87,533.93 77.15,-45.03 153.03,-75.81 221.65,-89.64 12.37,97.06 -26.63,227.33 -110.7,363.03 192.15,11.59 345.59,187.17 345.59,400.77 0,0.98 0,1.88 0,2.79 224.67,-136.48 447.01,-105.29 615.91,-15.75l391.03 -605.92c300.9,512.59 667.04,999.96 1106.97,1439.92 434.33,434.31 914.93,796.64 1420.33,1095.35 510.72,287.74 1063.98,522.28 1656.32,681 593.79,159.07 1191.66,232.6 1779.16,238.49 585.67,-6.34 1180.49,-79.56 1773.48,-238.45 592.98,-158.9 1148.84,-394.67 1660.78,-683.48 503.82,-298.23 982.85,-659.75 1415.94,-1092.81 439.91,-439.94 806.05,-927.33 1106.95,-1439.92l390.99 605.94c207.69,-110.09 496.41,-131.54 770.34,137.48 22.61,22.21 43.74,45.94 62.43,70.13 -57.49,-206.01 -19.13,-486.37 233.59,-981.59 91.94,327.77 292.48,496.64 339.15,730.79 60.11,301.15 -15.64,567 -215.36,809.72 -81.36,-127.89 -173.4,-227.44 -246.64,-333.68 55.05,216.69 -14.91,451.34 -185.83,622.27 -73.71,73.71 -173.48,126.91 -276.44,153.66 93.76,57.82 171.71,95.55 269.04,158.38 -1.31,1.68 -2.92,3.78 -3.92,5.09 -242.07,315.7 -505.82,622.09 -794.91,911.13 -287.28,287.3 -594.06,551.5 -916.24,798.83 -62.85,-97.31 -100.55,-175.23 -158.37,-269.02 -26.73,102.99 -79.94,202.74 -153.69,276.41 -254.53,254.53 -650.17,284.95 -917.64,12.67 -269.34,-274.23 -247.53,-562.61 -137.48,-770.28l-561.43 -362.35 33.05 667.33c234.88,8.54 495.48,133.85 598.35,504.23 102.09,367.78 -122.27,695.66 -469.76,788.39 -100.31,26.77 -213.7,23.16 -316.26,-5.15 52.28,96.98 100.93,168.57 153.81,271.7l-5.95 2.43c-367.95,152.46 -749.44,286.15 -1143.98,391.63 -390.18,104.32 -791.97,181.93 -1192.89,233.67 -5.76,-115.69 0.54,-202.03 -2.66,-312.15 -74.64,75.8 -170.6,135.59 -271.3,162.54 -347.66,93.2 -705.87,-78.64 -801,-447.83 -95.84,-371.89 66.9,-611.07 266.05,-735.88l-305.05 -594.48 -305.03 594.43c199.15,124.81 361.87,363.99 266.05,735.86 -95.16,369.22 -453.53,540.62 -801,447.87 -100.31,-26.77 -196.67,-86.8 -271.3,-162.56 -3.19,110.14 3.13,196.44 -2.64,312.18l-6.39 -0.86c-394.86,-51.93 -791.68,-127.04 -1186.52,-232.81 -392.22,-105.07 -774.89,-238.72 -1149.93,-394.1 52.88,-103.1 101.52,-174.75 153.81,-271.69 -102.56,28.36 -215.97,31.9 -316.23,5.15 -347.47,-92.74 -571.86,-420.62 -469.79,-788.37 102.87,-370.38 363.5,-495.7 598.35,-504.2l33.08 -667.4 -561.39 362.28c110.03,207.69 131.86,496.05 -137.5,770.33 -267.47,272.27 -663.13,241.84 -917.64,-12.67 -73.73,-73.73 -126.96,-173.48 -153.66,-276.43 -57.85,93.75 -95.53,171.7 -158.37,269.03 -1.69,-1.29 -3.79,-2.92 -5.1,-3.92 -315.7,-242.07 -622.13,-505.85 -911.17,-794.89 -287.92,-287.93 -550.51,-593.72 -798.84,-916.24 97.34,-62.85 175.26,-100.55 269.06,-158.38 -102.99,-26.76 -203.06,-80.29 -276.45,-153.7 -143.61,-143.61 -216.12,-333.09 -202.52,-518.6 -74.98,-52.31 -150.97,-95.99 -225.48,-130.58 1.29,137.05 24.76,288.94 72.63,443.44l-8.67 18.32c-130.99,-78.53 -264.76,-135.27 -390.96,-169.62 17.08,95.18 46.42,195.62 87.74,297.32 -29.31,33.17 -55.4,69.77 -78.36,107.89l304.48 -196.46c344.79,517.91 738.46,1004.43 1178.98,1444.98 440.55,440.5 927.13,834.21 1445.01,1179l-543.62 842.25c-567.1,-377.53 -1108.81,-813.3 -1609.07,-1313.53 -500.27,-500.23 -936.06,-1042.01 -1313.6,-1609.09l140.6 -90.78c-163.49,-49.01 -284.4,-282.21 -284.4,-408.07 0,-125.86 10.53,-111.86 29.42,-161.69 -119.48,-117.42 -155.76,-299.9 -100.48,-456.29 -213.29,-38.15 -380.06,-119.79 -454.23,-214.8 48.21,-27.34 108.02,-49.81 175.82,-66.26 -167.52,-127.14 -283.23,-273.25 -320.88,-398.16 136.99,-22.39 331.99,18.72 530.38,117.63 -14,-51.64 -22.84,-101.21 -26.37,-147.16 -170.82,-186.15 -355.92,-339.51 -561,-197.86 0.71,-109.69 60.52,-216.04 164,-309.35 -211.01,-51.27 -371.48,-272.49 -371.48,-446.7 0,-174.21 45.08,-225.95 118.84,-307.22 -39.71,-74.56 -56.73,-159.45 -50.09,-243.53 -169.78,-62.99 -422,-199.8 -498.02,-374.7 55.32,-15.26 120.95,-22.62 193.1,-21.77 -135.38,-171.74 -213.95,-349.32 -219.76,-485.38 143,12.61 327.83,104.35 501.35,255.48 -0.82,-55.84 3.01,-108.3 11.15,-155.67 -123.56,-232.29 -269.83,-435.03 -511.5,-344.51 28.78,-110.78 115.84,-202.96 243.38,-270.74 -198.32,-106.13 -302.61,-371.23 -258.11,-547.49 44.51,-176.26 102.92,-216.98 197.59,-280.21 -38.98,-160.74 12.23,-336.71 133.89,-449.44 -135.75,-155.88 -212.38,-315.34 -213.92,-433.52 56.91,7.3 120.27,25.83 186.49,54.48 -58.5,-210.7 -62.46,-404.87 -15.28,-532.56 127.05,66.79 262.12,222.87 363.84,429.22 5.56,-13.93 11.5,-27.6 17.52,-40.83 -77.51,-293.14 -167.23,-603.17 -461.19,-558.67 52.35,-105.22 160.88,-178.58 305.29,-217.86 -181.51,-148.4 -227.34,-463.46 -150.66,-627.79 84.88,-181.82 145.54,-200.54 251.23,-244.93 -5.85,-203.19 116.74,-410.69 314.82,-475.48 -31.95,-42.74 -62.51,-88.38 -90.86,-136.5 -133.12,-226.4 -184.44,-448.34 -148.4,-584.84 52.87,22.25 108.93,57.08 165.09,102.43 0.04,-218.68 48.2,-406.82 127.88,-517.22 104.51,98.38 192.89,284.9 235.57,510.97 33.95,-44.37 69.39,-83.25 105.16,-115.37 46.7,-258.9 57.38,-508.69 -188.43,-587.16 91.13,-69.22 216.58,-87.74 358.67,-62.06 -90.03,-206.16 1.03,-485.6 136.31,-589.63 152.87,-117.65 215.14,-106.74 328.6,-97.76 47.73,-104.1 133.99,-187.52 238.64,-233.45 7.54,-15.76 15.67,-31.6 24.52,-47.67 -17.96,-66.33 -31.91,-136.59 -40.82,-209.11 -32.19,-263.11 9.49,-489.16 97.71,-601.06 40.03,41.88 77.91,96.65 111.67,161.2 87.91,-202.4 208.13,-357.16 326.23,-427.3 47.79,111.19 60.5,274.73 33.39,457.63 103.6,-253.57 163.4,-503.22 -66.41,-639.92 131.38,-60.75 296.14,-34.8 466.44,59.55 -76.68,-238.59 92.6,-539.78 270.49,-626.45 177.88,-86.67 241.47,-64.87 352.58,-32.51 79.16,-103.63 198.71,-175.62 327.82,-195.07 -0.06,-3.3 -0.2,-7.13 -0.23,-9.84 -4.54,-274.38 61.94,-502.76 164.74,-608.59 36.71,47.37 69.95,107.82 97.8,177.9 112.12,-199.09 252.46,-345.69 381.64,-405.31 44.7,143.11 29.53,358.25 -47.52,585.98 53.66,-22.99 105.84,-40.26 154.88,-51.18 175.28,-211.76 313.07,-433.66 129.49,-631.16 118.52,-16.28 242.19,31.12 358.41,127.42 23.67,-233.86 238.37,-439.94 426.39,-467.01 188.02,-27.08 250.63,13.18 349.33,79.5 171.23,-124.38 418.24,-125.96 583.49,10.88 1.57,-6.69 3.25,-13.79 4.78,-19.96 62.87,-254.78 182.08,-449.36 303.37,-521.56 22.19,52.86 37.81,117.01 46.18,188.68 153.14,-156.12 319.22,-256.75 453.43,-279.83 5.74,143.45 -61.69,338.53 -189.48,529.83l13.66 -1.93c232.4,-181.93 457.5,-382.37 313.86,-640.9 132.33,12.23 253.32,110.33 349.65,266.93zm-5992.42 4653.28c2.93,135.9 -14.16,286.14 -53.77,440.21l20.75 3.11c139.77,-94.56 284.01,-164.13 420.07,-207.11 -13.84,94.2 -38.56,193.65 -74.24,294.77 247.31,89.6 434.69,224.34 516.79,373.88 -205.49,-65.71 -571.51,67.45 -816.27,355.01 -93.31,85.19 -175.88,187.36 -242.89,294.45 -33.66,-202.32 -228.52,-321.81 -416.9,-222.44 -7.94,-12.71 -13.31,-24.87 -15.21,-36.19 7.76,-19.59 -17.35,54.33 22.11,-59.67 39.46,-114 86.98,-402.36 51.57,-534.76 21.91,-271.17 4.64,-496.3 -125.88,-591.29 116.75,-15.01 296.55,0.37 443.67,67.66 89.08,-72.05 180.44,-131.72 270.2,-177.63zm-663.21 759c-54.6,35.88 -110.88,97.06 -162.2,176.02 -14.11,-152.81 -64.12,-368.17 -176.55,-480.19 -63.56,93.85 -96.63,266.98 -80.06,462.2 -53.98,-49.89 -107.92,-86.98 -157.31,-107.99 -18.95,112.16 29.4,291.35 136.33,471.38 28.18,47.46 59.25,92.37 91.15,133.13 80.69,-12.18 160.72,3.31 230.76,45.05 5.61,-8.91 11.52,-17.57 17.72,-25.79l-8.11 -26.44c25.92,-49.5 49.48,-103.51 69.73,-160.88 68.8,-195.61 79.88,-379.69 38.54,-486.49zm1195.36 952.96c-51.97,-39.73 -128.02,-72.36 -218.56,-94.21 136.14,-63.43 319.55,-192.14 382.18,-333.7 -108.64,-28.55 -279.79,-0.29 -454.22,82.64 27.31,-68.65 42.92,-132.91 45.19,-187.24 -110.06,20.55 -258.7,127.91 -387.96,292.35 -37.99,48.38 -71.36,97.87 -99.86,147.03l-23.51 6.32c-0.16,6.42 -0.51,12.79 -0.99,19.25 149.67,-28.92 282.71,57.34 335.68,197.33 186.68,-7.94 343.26,-58.58 422.05,-129.77zm-500.59 576.54c129.08,66.53 160.02,283.26 107.46,395.91 -52.55,112.64 -92.07,128.74 -156.79,156.52 -128.43,-43.44 -289.96,-58.23 -468.54,-42.35 -19.34,-139.31 -52.63,-268.43 -96.6,-381.39 -107.46,94.45 -212.12,215.29 -305.22,356.36 -43.66,-149.54 -102.29,-284.85 -170.4,-398.78 -83.97,103.39 -161.82,228.74 -227.4,370.17 -25.97,1.47 -51.25,3.69 -75.92,6.81 -216.7,-91.69 -300.39,-356.13 -203.3,-564.63 52.42,-112.59 147.99,-189.47 255.06,-218.46 -18.16,-83.57 -32.68,-127.28 30.71,-263.1 63.4,-135.82 357.88,-232.63 446.65,-186.53 88.78,46.1 34.95,20.72 50.47,33.39 3.81,-10.94 -24.56,48.42 13.2,-32.56 37.76,-80.98 238.37,-217.29 364.02,-152.03 125.66,65.26 171.69,222.91 120.22,366.97 69.31,-33.65 118.3,-52.2 217.85,-0.51 99.55,51.69 177.84,245.14 107.48,395.94 -26.52,56.76 -66.01,101.82 -112.02,132.28 35.14,0.53 70.92,9.4 103.07,25.99zm69.31 1631.73c-62.43,-19.66 -145.09,-24.3 -237.6,-13.91 106.25,-105.87 234.76,-289.97 245.24,-444.19 -111.83,10.26 -263.05,95.29 -398.67,232.86 2.24,-73.9 -5.08,-139.62 -21.48,-191.47 -96.41,56.95 -199.89,208.82 -264.78,407.32 -11.89,36.37 -22.24,73.36 -30.7,109.41 127.23,-2.02 235.03,76.76 285.06,192.56 143.01,-48.47 349.71,-154.53 422.93,-292.58zm-1346.62 -401.23c-42.99,49.2 -80.86,123.22 -109.1,212.97l-7 -18.01c-74.57,-190.57 -187.79,-338.88 -291.68,-397.34 -36.17,107.49 -21.65,283.11 46.61,466.8 -65.4,-33.66 -127.3,-54.92 -180.52,-61.95 9.1,87.3 67.31,202.2 163.17,316.77 96.19,-66.66 213.02,-88.62 325.26,-52.92 29.49,-74.99 81.69,-134.94 144.66,-171.98 -11.53,-126.53 -44.42,-231.28 -91.4,-294.34zm905.23 1071.94c139.63,35.09 211.75,233.39 183.08,346.88 -28.66,113.49 -59.31,131.25 -112.15,170.79 -137.07,-18.7 -302.78,-0.27 -479.57,53.74 -47.7,-132.33 -106.98,-251.75 -173.32,-353.16 -85.64,114.59 -163.07,254.46 -224.99,411.73 -73.64,-137.32 -158.93,-257.58 -249.12,-355 -60.79,118.53 -111.07,257.26 -146.01,409.16 -33.14,9.06 -64.85,19.13 -95.07,30.36l-4.54 -1.09c-207.54,-53.26 -321.69,-314.97 -280.52,-478 41.17,-163.03 107.47,-207.18 206.58,-256.33 -34.24,-74.12 -44.15,-162.94 -21.78,-251.56 48.23,-190.83 228.05,-310.39 400.29,-266.12 19.6,5 38.32,12.04 55.98,20.7 1.57,-11.03 3.71,-22.09 6.47,-33.1 39.27,-155.54 190.51,-251.79 326.31,-216.92 135.8,34.86 211.82,172.31 189.85,317.19 61.17,-45.65 105.46,-73.1 213,-45.48 107.55,27.61 210.06,240.14 183.11,346.87 -26.96,106.74 -44.56,108.53 -83.57,146.45 34.51,-6.83 71.29,-5.81 105.97,2.89zm-1079.74 1423.86c-20.62,62.02 -26.97,144.9 -18.38,238.6l-13.4 -13.91c-142.38,-147 -304.12,-240.06 -422.51,-253.88 8.18,113.1 89.37,269.52 223.26,412.56 -73.31,-5.78 -138.6,-1.47 -190.43,12.64 53.32,97.48 196.41,205.53 385.76,280.53 33.41,-156.38 147.78,-279.18 291.74,-311.67 -67.11,-176.16 -164.41,-310.71 -256.04,-364.87zm1479.2 0.17c-65.38,0.96 -145.34,22.41 -229.95,61.31l8.22 -17.11c86.28,-182.55 115.07,-365.67 85.32,-481.6 -102.94,44.88 -219.89,172.99 -305.54,346.13 -21.01,-70.81 -48.59,-130.95 -80.41,-175.02 -68.44,78.32 -116.68,236.01 -122.96,425.76 32.49,30.97 58.65,69.66 76.24,113.37 119.32,-88.28 277.91,-74.29 383.16,29.82 104.41,-105.04 171.01,-215.04 185.92,-302.66zm-84.93 690.59c139.79,0 253.72,166.14 253.72,278.35 0,112.2 -24.57,135.97 -64.75,185.24 -132.89,15.35 -283.81,72 -436.72,164.26 -76.03,-111.41 -159.86,-208.19 -246.04,-286.5 -53.12,126.78 -92.61,275.07 -113.44,435.82 -101.5,-109.91 -209.93,-201.19 -317.51,-270.13 -28.93,124.52 -43.21,265.27 -40.01,414.63 -28.9,16.26 -56.21,33.22 -81.88,50.87 -209.26,2.38 -380.61,-167.68 -380.61,-376.81 0,-114.81 51.71,-217.97 132.94,-287.19 -49.64,-60.65 -79.96,-90.23 -79.96,-228.36 0,-138.12 216.44,-342.49 312.2,-342.49 95.75,0 38.74,2.1 57.33,5.86 -1.09,-10.57 -1.78,50.12 -1.78,-32.22 0,-82.34 118.94,-279.18 254.49,-279.18 135.55,0 239.37,109.46 253.08,249.21 46.5,-56.97 81.5,-92.96 188.86,-92.96 107.36,0 253.72,172.79 253.72,278.32 0,105.53 -16.06,111.35 -43.63,155.84 30.7,-14.53 64.52,-22.56 99.99,-22.56zm-674.93 1579.17c-4.71,62.48 9.01,140.96 39.23,225.92 -126.23,-78.34 -319.77,-165.2 -471.97,-144.68 34.42,103.04 147.58,228.88 306.91,329.75 -70.09,12.09 -130.26,31.63 -175.5,57.07 63.87,68.06 193.83,127.13 355.93,157.31 52.47,-101.65 143.09,-176.72 250.23,-201.59 -8.41,-54.23 -5.19,-109.53 9.74,-162.39 -102.01,-138.77 -219.58,-233.98 -314.57,-261.39zm-190.54 -946.59c105.85,76.78 210.87,177.17 305.64,296.9l14.57 -14.01c9.93,-161.47 41.69,-311.81 88.92,-440.47 64.04,65.37 125.68,141.94 182.11,227.97 214.45,-136.36 428.16,-200.77 591.11,-176.33 -124.74,86.07 -219.01,264.26 -265.73,491.85 -67.45,110.27 -88.5,304.27 -46.35,526.44 -152.43,14.56 -281.32,106.82 -342.09,234.32 -107.53,-144.39 -229.54,-246.79 -337.63,-291 -194.82,-174.33 -377.42,-292.06 -527.13,-247.84 57.34,-97.69 175.11,-225.71 313.4,-298.73 -2.71,-109.72 5.45,-214.06 23.18,-309.1zm1536.39 633.16c-64.58,13.11 -139.46,48.31 -215.46,100.7 40.68,-138.31 60.87,-353.35 -6.62,-486.19 -93.01,61.43 -183.29,203.8 -233.56,382.59 -34.95,-62.65 -74.26,-113.97 -114.49,-149.41 -52.86,87.47 -68.97,247.62 -35.82,429.81 115.04,4.59 218.33,53.43 291.77,128.96 55.72,-69.06 132.74,-117.1 219.51,-131.38 63.6,-102.6 96.98,-200.61 94.67,-275.08zm-40.27 364.68c154.31,0 280.17,138.06 280.17,307.34 0,23.77 -2.56,46.84 -7.24,69.07 -18.23,15.03 -37.98,32.24 -54.65,48.91l-218.28 -425.32zm211.48 431.84c-75.84,75.17 -133.02,162.96 -164.94,266.24l-39.47 45.3c-98.16,-65.01 -197.41,-116.95 -293.28,-154.78 -4.76,134.74 10.17,284.25 46.07,438.8l-4.75 5.44c-131.55,-65 -262.88,-110.88 -385.76,-136.9 16.98,126.76 53.42,263.49 109.24,402.04 -48.94,58.53 -88.74,117.69 -118.54,176.17l-107.44 69.33c-22.42,6.39 -45.93,9.83 -70.07,9.83 -154.32,0 -280.18,-187.11 -280.18,-307.36 0,-120.25 22.38,-137.01 59.68,-189.24 -97.22,-48.28 -165.16,-133.28 -165.16,-280.07 0,-146.8 191.56,-307.34 280.18,-307.34 88.62,0 45.35,2.96 66.73,8.71 -31.73,-47.54 -50.25,-49.25 -50.25,-164.03 0,-114.78 159.88,-307.39 323.05,-307.39 163.16,0 274.11,96.08 311.65,226.22 30.48,-133.52 140.8,-232.81 271.76,-232.81l211.48 431.84zm-2185.41 -3759.66c86.4,104.96 166.01,233.48 230.32,379.02l18.21 -10.42c51.17,-160.79 121.44,-304.73 201.66,-422.67 47.44,82.57 89.66,175.9 124.2,277.41 249.67,-82.7 480.29,-92.9 637.29,-26.25 -238.99,89.38 -459.39,446.24 -541.22,902.47 -25.24,-7.84 8.14,-11.96 -79.2,-11.96 -87.33,0 -269.61,120.46 -289.75,276.1 -13.2,-0.83 -26.48,-0.88 -39.68,-0.15 -72.13,-206.3 -180.29,-367.25 -289.53,-448.92 -150.59,-226.44 -303.56,-392.52 -464.84,-386.29 82.39,-84.08 233.12,-183.32 390.33,-221.54 25.31,-111.73 60.16,-215.21 102.21,-306.8zm8313.86 -8417.43c-22.97,143.86 -177.58,245.31 -342.83,225.37 -60.55,-7.27 -114.24,-29.95 -157.05,-62.73 -8.76,-140.57 -54.84,-301.39 -134.28,-466.95 122.15,-72.58 229.7,-154.98 318.29,-241.62 -127.69,-68.92 -278.8,-125.01 -444.4,-161.94 122.67,-100.42 226.49,-209.98 307,-320.64 -124.91,-41.73 -267.25,-69.48 -419.73,-79.76 -29.78,-263.05 216.43,-471.15 472.26,-440.67 123.27,14.67 226.07,81.64 286.98,174.42 73.74,-43.31 110.73,-70.75 259.56,-52.79 148.83,17.95 332.53,267.71 316.33,366.41 -16.19,98.7 -8.77,39.69 -16.02,58.35 11.6,0.23 -53.67,-8.29 35.03,2.4 88.71,10.69 280.76,158.93 257.85,298.65 -22.9,139.71 -158.4,232.54 -311.32,228.52 53.54,55.35 86.41,96.11 68.28,206.79 -18.13,110.68 -229.14,239.13 -342.8,225.43 -113.66,-13.71 -117.28,-31.08 -160.59,-65.28 10.51,33.56 13.18,70.07 7.44,106.04zm-1563.91 639.69c3.54,-65.32 -12.4,-146.54 -45.37,-233.6 129.65,76.57 338.37,155.77 491.07,127.55 -37.65,-105.75 -157.46,-231.24 -324.26,-328.62 72.1,-16.07 133.99,-39.45 180.07,-68.19 -78.97,-79.3 -251.52,-142.14 -460.13,-155.69 -32.31,-2.1 -65.16,-3.05 -96.88,-2.81 -28.92,41.49 -67.91,77.18 -114.13,103.8 89.45,90.13 116.46,220.1 68.85,337.78 100.77,118.88 210.92,198.01 300.78,219.78zm51.64 -1454.67c-64.11,-12.6 -147.16,-8.33 -239,12.12 96.93,-119.32 211.89,-307.51 210.06,-466.51 -111.13,22.55 -255.95,123.01 -380.74,274.05 -3.61,-73.41 -16.18,-137.67 -36.77,-187.22 -127.4,92.52 -207.94,316.03 -240.11,464.98 52.76,60.99 84.69,135.44 91.1,215.85 59.19,-0.9 115.71,11.89 165.18,35.66 20.7,-8.86 -41.19,22.33 62.21,-28.53 103.39,-50.86 322.85,-215.22 368.07,-320.4zm-799.59 1480.29c20,149.32 -141.28,297.43 -262.38,314.86 -121.1,17.43 -150.42,-5.2 -209.6,-40.56 -36.47,-139.87 -120.2,-292.63 -242.67,-441.95 108.9,-98.71 200.76,-203.46 272.39,-307.9 -144.82,-37.17 -310.73,-56.4 -487.33,-53.71 103.38,-125.75 185.68,-255.97 243.98,-381.89 -138.72,-11.62 -292.77,-5.02 -453.48,21.61 -21.87,-28.39 -44.22,-54.97 -67.14,-79.71 -32.93,-225.79 124.64,-434 349.66,-466.04 123.47,-17.57 242.91,21.5 329.8,97.72 58.03,-62.58 139.91,-107.48 234.44,-121.12 203.54,-29.29 390.62,96.94 416.39,281.05 2.9,20.9 3.51,41.79 2.24,62.27 11.23,-2.81 -54.3,5.93 34.52,-6.86 88.83,-12.79 319.06,83.9 339.38,228.98 20.31,145.09 -82.31,273.24 -231.05,309.63 68.44,40.95 112.56,72.83 128.62,187.75 16.06,114.91 -148.48,298.47 -262.34,314.85 -113.87,16.39 -122.57,0.12 -174.74,-22.53 20.28,30.67 34.34,66.53 39.31,103.55zm-812.2 -828.19c-67.04,125.23 -159.64,253.29 -274.67,373.29l17.33 13.44c175.73,-14.42 342.71,-3.83 488.63,26.8 -60.93,78.64 -134.38,156.55 -218.74,230.32 179.23,208.38 280.78,427.18 278.83,605.39 -191.49,-206.23 -662.67,-273.96 -1166.38,-145.45 15.08,-197.67 -157.18,-327.85 -348.59,-299.69 133.33,-116.44 283.72,-291.97 328.74,-467.25 158.94,-235.62 258.63,-449.32 188.49,-602.71 114,46.16 269.79,152.37 369.29,289.07 117.98,-19.96 231.83,-27.39 337.07,-23.21zm-1180.91 1987.52c58.82,135.14 -37.78,315.67 -167.2,378.76 -129.42,63.09 -225.93,41.95 -306.07,-17.67 -18.43,-21.68 -38.18,-43.15 -59.31,-64.38 -7.84,-12.75 -14.58,-26.12 -19.8,-40.17 -4.71,2.53 -9.44,4.75 -14.25,7.03 -54.43,-50.89 -116.37,-100.1 -184.71,-146.76 76.94,-129.38 135.61,-259.65 174.76,-383.69 -151.45,6.2 -318.19,36.3 -488.9,91.16 63.79,-154.46 105.72,-306.96 125.64,-448.21 -133.31,28.55 -275.43,78.05 -418.45,147.68 -16.37,-22.19 7.32,40.29 -42.09,-73.05 -49.4,-113.34 53.96,-466.98 212.62,-544.3 158.66,-77.32 236.39,-54.58 338.8,-9.26 38.81,-77.11 104.87,-144.86 191.15,-186.85 185.7,-90.49 396.28,-28.82 468.69,137.41 8.27,18.89 14.28,38.46 18.41,58.21 9.91,-6.11 -50.06,22.36 30.97,-17.13 81.03,-39.49 325.01,-19.04 382.09,111.97 57.07,131.01 -6.98,283.89 -138.81,364.16 75.72,17.6 139.55,65.5 171.11,137.94 58.93,135.11 -16.17,305.18 -167.16,378.73 -56.79,27.7 -116.44,37.93 -171.85,32.61 27.24,22.68 49.4,51.53 64.36,85.81zm774.89 -213.28c-26.92,-62.82 -79.46,-131.53 -150.66,-197.83 156.83,11.78 389.13,-10.86 519.04,-107.91 -84.22,-81.66 -254.57,-143.69 -455.94,-157.61 60.08,-48.49 107.23,-99.04 137.16,-147.31 -110.78,-37.68 -301.15,-16.16 -503.13,67.28 -23.82,9.81 -46.98,20.33 -69.59,31.19 -12.73,20.09 -27.64,39.25 -44.39,57.12 135.7,72.22 185.1,224.17 138.09,367.52 166.38,80.55 325.6,110.91 429.42,87.55zm-586.99 -1423.23c-68.11,4.7 -150.75,31.53 -237.88,77.09l8.13 -18.52c85.44,-196 111.04,-389.28 77.32,-509.18 -106.05,52.84 -224.9,193.54 -309.91,379.78 -23.56,-73.12 -53.65,-134.55 -87.86,-179 -72.91,90.11 -120.33,270.57 -117.79,482.69 155.32,-2.81 296.58,73.82 359.31,210.94 121.62,-101.76 285.18,-281.36 308.68,-443.8zm-1971.09 1790.22c-64.97,11.26 -141.7,45.27 -220.83,97.72l5.96 -18.6c62.57,-196.81 67.94,-385 23.62,-496.85 -96.62,61.33 -196.8,208.3 -259.9,395.67 -29.96,-67.92 -64.96,-123.89 -102.26,-163.21 -62.62,96.16 -90.11,281.12 -63.26,491.13 6.1,47.42 26.04,146.43 41.73,214.57 81.25,-17.61 164.09,-11.85 237.31,16.33 36.22,-30.72 71.78,-64.79 106.4,-101.97 142.32,-153.34 226.54,-319.32 231.23,-434.79zm822.8 1203.9c-36.44,-54.99 -98.29,-111.14 -177.44,-161.77 151.29,-16.23 367.63,-77.61 474.41,-192.6 -94.21,-62.95 -266.83,-92.36 -460.52,-70.59 48.64,-56.5 84.67,-112.71 104.75,-163.76 -111.73,-16.58 -289.13,37.26 -466.33,151.19 -8.24,5.28 -17,11.28 -25.4,16.92 42.9,91.08 33.58,201.12 -20.91,292.89 70.14,19.87 131.57,63.48 170.96,125.06 163.08,41.66 310.1,41.14 400.48,2.66zm-78.25 -1862.44c-28.56,143.21 -81.13,296.6 -157.93,448.82l20.75 8.13c166.44,-66.17 331.69,-105.07 482.33,-118.08 -36.22,95.5 -84.86,193.91 -145.27,291.48 234.81,152.25 397.18,337.66 447.2,513.8 -246.24,-146.68 -724.15,-73.8 -1176.23,202.1l-10.3 6.32c-90.88,-79.78 -228.41,-93.79 -347.22,-36.7 -53.49,-38.32 -114.92,-77.29 -95.52,-129.62l4.39 -11.81c21.57,-20.75 42.66,-42.33 63.36,-64.83 177.35,-193.02 273.57,-400.82 266.66,-544.59 -39.2,6.69 -81.11,19.04 -124.67,36.7 86.89,-281.3 122.57,-523.63 9.03,-654.78 124.13,11.84 306.4,70.34 442.85,175.57 108.8,-54.54 217.19,-95.55 320.57,-122.51zm3566.05 -1399.2l-9.78 -0.19 3.8 -9.5 0.08 0.01c48.69,-125.84 5.7,-261.59 -101.88,-342.32 18.75,-8.37 37.37,-17.11 56.04,-26.36 232.44,-115.78 395.25,-274.01 439.79,-409.49 -23.06,-4.56 -47.74,-7.73 -73.75,-9.24 180.17,-184.49 301.36,-361 269.37,-518.42 96.94,70.93 220.61,210.19 285.33,366.85 114.44,6.83 222.34,24.94 319.86,52.69 -88.61,108.07 -201.59,213.16 -333.92,305.37l13.37 17.04c167.19,25.19 321.11,73.05 451.13,135.8 -73.22,63.71 -157.98,123.78 -252.02,177.4 124.37,244.98 174.01,482.75 135.31,657.45 -136.38,-245.82 -563.32,-417.98 -1061.15,-404.24 -43.2,1.17 -85.62,3.57 -127.4,7.42 -1.49,-0.03 -13.86,-0.49 -14.18,-0.27zm-5904.89 7456.19c4.41,10.55 8.27,24.16 11.02,34.86l-11.02 -34.86zm11.56 37.02c3.54,13.01 5.12,26.1 7.4,39.21l6.05 -2.43c0,-0.61 20.74,-7.26 23.16,-8.02l-36.61 -28.76zm43.76 26.66c4.54,-1.46 9.98,-2.59 14.52,-3.61 34.63,-159.62 98.85,-328.21 191.27,-462.64 150.51,-309.84 388.5,-576.27 560.41,-602.22 -139.9,-97.67 -367.62,-135.33 -629.01,-105.97 -12.82,-106.44 -34.83,-206.53 -64.21,-297.12 -102.83,98.89 -201.33,225.17 -284.62,371.92l-19.97 6.42c-32.83,-155.66 -84.15,-297.9 -147.04,-418.42 -60.07,80.94 -115.55,174.98 -163.4,279.02 -161.7,4.97 -329.71,70.92 -427.67,136.13 164.54,28.14 282.23,234.84 385.3,500.16 12.1,-17.48 24.55,-33.57 37.46,-48.26 71.31,79.81 120.42,223.64 133.58,400.02 152.02,-50.65 302.53,32.7 358.06,180.89l55.32 63.68zm3629.9 5570.2c-382.84,-382.82 -710.66,-801.23 -990.74,-1239.44l-233.66 361.99c40.86,35.49 75.17,73.27 101.36,110.41 252.31,361.5 535.9,709.65 858.18,1031.89 322.29,322.35 670.44,605.9 1031.94,858.19 37.14,26.21 74.93,60.52 110.43,101.38l361.97 -233.61c-438.21,-280.14 -856.67,-607.93 -1239.48,-990.81zm-403.09 403.08c-351.62,-351.57 -658.69,-732.66 -929.36,-1129.19 -155.15,-164.67 -470.73,-184.87 -662.39,6.77 -191.66,191.65 -210.58,477.37 -2.59,685.31 107.06,107.1 230.46,167.64 363.38,127.09 124.27,-37.86 210.5,-136.36 211.38,-254.15 1.02,-137.42 -73.19,-199.85 -151.27,-219.04 -130.14,-32.07 -263.37,83.15 -148.44,247.68 -136.8,-55.12 -159.34,-199.82 -126.47,-265.27 54.94,-109.34 204.76,-188.76 337.17,-142.8 223.73,77.66 280.3,326.76 267.31,415.14 -18.32,124.67 -84.98,234.88 -180.57,294.09l-416.05 257.78c206.2,258.41 426.73,509.69 665.75,748.77 239.08,239.06 490.34,459.52 748.74,665.75l257.83 -416.03c59.67,-96.27 169.11,-161.91 294.09,-180.55 88.77,-13.3 337.1,43.24 415.14,267.3 46.2,132.76 -33.19,281.91 -142.82,337.14 -65.75,33.17 -210.14,10.37 -265.26,-126.43 164.49,114.93 279.35,-18.61 247.69,-148.46 -18.94,-77.7 -81.66,-152.31 -219.02,-151.31 -117.85,0.87 -216.34,87.12 -254.16,211.4 -40.57,132.91 20.31,256.65 127.05,363.41 207.6,207.66 493.64,189.04 685.3,-2.62 191.66,-191.66 171.43,-507.23 6.83,-662.38 -396.57,-270.65 -777.6,-577.75 -1129.26,-929.4zm-1547.12 1547.14c442.28,442.32 926.99,841.28 1441.49,1195.56l331.26 -513.39c-471.13,-325.06 -922.42,-694.34 -1341.49,-1113.42 -419.06,-419.09 -788.36,-870.39 -1113.43,-1341.49l-513.4 331.28c354.32,514.46 753.26,999.21 1195.57,1441.46zm5113.78 -123.68c-522.97,-140.12 -1016.09,-338.57 -1477.78,-578.01l-21.3 430.3c53.07,10.3 101.69,25.85 142.97,44.95 399.27,186.89 818.89,346.62 1259.17,464.55 440.23,117.98 883.52,189.53 1322.73,227.25 45.3,4.14 95.14,14.96 146.34,32.6l196.66 -383.3c-519.58,-23.54 -1045.82,-98.21 -1568.79,-238.34zm-147.53 550.64c-480.33,-128.74 -936.8,-305.15 -1369.49,-513.26 -216.7,-65.03 -500.11,75.23 -570.25,337.07 -70.19,261.83 56.58,519.07 340.39,594.8 145.9,38.93 283.74,29.58 378.27,-71.63 88.35,-94.62 114.07,-222.92 55.98,-325.82 -67.63,-119.91 -163.35,-136.42 -240.56,-114.05 -128.67,37.27 -186.49,203.74 -4.71,288.73 -146.05,20.7 -237.96,-92.96 -242.16,-166.5 -6.93,-122.59 82.51,-265.9 220.6,-292.28 233.04,-44.4 406.51,142.74 439.11,225.9 45.94,117.22 44.11,245.16 -9.37,344.97l-231.39 431.3c307.81,120.65 624.4,228 950.96,315.5 326.57,87.5 654.39,152.83 981.31,202.2l15.23 -489.19c3.58,-113.15 65.87,-225.1 164.4,-303.41 69.9,-55.55 313.91,-130.72 493.19,23.94 106.09,91.5 111.86,261 44.89,363.4 -40.08,61.26 -176.8,114.05 -292.92,23.12 199.93,17.28 232.75,-156.08 140.25,-252.43 -55.39,-57.68 -147.11,-91.19 -265.38,-21.5 -101.38,59.76 -143.42,183.92 -114.4,310.17 31.03,135.03 145.9,212.26 291.76,251.18 283.81,75.74 522.06,-83.1 592.21,-344.93 70.16,-261.84 -105.19,-524.99 -325.33,-577.05 -478.75,-36.12 -962.28,-111.54 -1442.59,-240.23zm-566.27 2113.41c604.15,161.87 1223.4,265.05 1846.07,314.67l30.24 -610.25c-570.55,-46 -1146.03,-140.14 -1718.46,-293.57 -572.49,-153.38 -1117.95,-359.58 -1635.05,-605.03l-278.98 543.62c564.09,268.36 1152.03,488.68 1756.18,650.56zm208.4 -777.94c601.8,161.23 1220.01,258.9 1840.87,298.53l-49.6 1001.26c-679.87,-43.42 -1366.92,-149.95 -2050.32,-333.04 -683.36,-183.12 -1331.61,-434.4 -1942.1,-736.75l457.64 -891.89c557.5,276.11 1141.78,500.62 1743.51,661.89zm4158.39 -1886.04c-522.97,140.14 -1049.24,214.8 -1568.82,238.3l196.71 383.29c51.13,-17.64 100.99,-28.45 146.27,-32.56 439.23,-37.75 882.51,-109.24 1322.78,-227.23 440.28,-117.98 859.92,-277.68 1259.12,-464.62 41.34,-19.04 89.91,-34.61 143.04,-44.91l-21.33 -430.32c-461.7,239.49 -954.8,437.91 -1477.77,578.05zm147.51 550.6c-480.31,128.71 -963.84,204.13 -1442.61,240.27 -220.15,52.04 -395.46,315.21 -325.31,577.03 70.16,261.81 308.36,420.64 592.18,344.89 145.88,-38.93 260.75,-116.08 291.8,-251.14 29.02,-126.21 -13.04,-250.38 -114.44,-310.16 -118.25,-69.72 -209.65,-36.51 -265.36,21.46 -92.82,96.72 -59.63,269.76 140.26,252.43 -116.1,90.91 -252.54,38.46 -292.93,-23.11 -67.3,-102.68 -61.5,-271.52 44.89,-363.38 179.62,-154.98 423.3,-79.51 493.22,-23.94 98.53,78.32 160.86,190.88 164.37,303.43l15.26 489.17c326.89,-49.39 654.76,-114.68 981.29,-202.2 326.55,-87.47 643.17,-194.83 950.95,-315.52l-231.39 -431.28c-53.52,-99.8 -55.29,-227.75 -9.31,-344.97 32.61,-83.14 206.06,-270.3 439.07,-225.88 138.09,26.36 227.12,169.98 220.58,292.28 -3.9,73.15 -96.13,187.13 -242.15,166.48 181.79,-84.99 123.71,-251.8 -4.71,-288.73 -76.88,-22.09 -173.21,-5.56 -240.55,114.07 -57.75,102.58 -32.73,230.86 55.99,325.8 94.82,101.56 232.34,110.56 378.22,71.63 283.82,-75.73 410.58,-332.97 340.43,-594.79 -70.16,-261.81 -353.56,-402.07 -570.26,-337.08 -432.67,208.09 -889.18,384.54 -1369.49,513.24zm566.29 2113.45c604.19,-161.91 1192.05,-382.19 1756.17,-650.58l-278.98 -543.62c-517.09,245.48 -1062.54,451.68 -1635.01,605.07 -572.48,153.39 -1147.97,247.52 -1718.51,293.51l30.21 610.22c622.7,-49.57 1241.99,-152.74 1846.12,-314.6zm-208.45 -777.98c601.79,-161.23 1186.02,-385.76 1743.55,-661.84l457.67 891.82c-610.52,302.39 -1258.82,553.67 -1942.18,736.78 -683.35,183.1 -1370.42,289.65 -2050.3,333l-49.61 -1001.21c620.89,-39.63 1239.09,-137.32 1840.87,-298.55zm4608.45 -1762.35c-442.26,442.3 -927.01,841.26 -1441.46,1195.61l-331.29 -513.4c471.1,-325.09 922.37,-694.35 1341.49,-1113.42 419.08,-419.1 788.36,-870.39 1113.43,-1341.53l513.4 331.29c-354.28,514.48 -753.27,999.2 -1195.57,1441.45zm-1547.15 -1547.1c351.6,-351.61 658.74,-732.67 929.39,-1129.24 155.16,-164.6 470.73,-184.85 662.39,6.81 191.66,191.66 210.58,477.35 2.62,685.29 -107.05,107.08 -230.54,167.63 -363.39,127.09 -124.31,-37.84 -210.55,-136.38 -211.42,-254.15 -1,-137.42 73.22,-199.85 151.32,-219.06 130.1,-32.05 263.38,83.22 148.45,247.65 136.82,-55.06 159.3,-199.79 126.43,-265.23 -54.89,-109.33 -204.74,-188.77 -337.15,-142.81 -223.79,77.68 -280.59,326.38 -267.31,415.16 18.64,124.98 84.34,234.4 180.57,294.07l416.03 257.83c-206.23,258.41 -426.72,509.66 -665.75,748.72 -239.08,239.06 -490.38,459.54 -748.77,665.79l-257.78 -416.05c-59.65,-96.23 -169.42,-162.25 -294.09,-180.57 -88.42,-12.98 -337.48,43.58 -415.14,267.31 -45.94,132.39 33.46,282.26 142.82,337.17 65.39,32.85 210.11,10.33 265.24,-126.45 -164.49,114.91 -279.35,-18.64 -247.71,-148.46 18.94,-77.73 81.37,-152.63 219.07,-151.33 118.14,1.17 216.28,87.13 254.16,211.42 40.58,132.9 -20.34,256.65 -127.08,363.39 -207.63,207.64 -493.67,189.04 -685.33,-2.62 -191.66,-191.66 -171.44,-507.23 -6.78,-662.38 396.55,-270.63 777.6,-577.74 1129.21,-929.35zm-403.08 -403.11c382.88,-382.83 710.68,-801.22 990.78,-1239.44l233.64 361.99c-40.86,35.49 -75.15,73.25 -101.38,110.41 -252.27,361.5 -535.89,709.64 -858.17,1031.94 -322.28,322.3 -670.43,605.85 -1031.88,858.18 -37.19,26.19 -74.97,60.46 -110.44,101.34l-362.01 -233.61c438.19,-280.13 856.63,-607.94 1239.46,-990.81zm-2005.8 -13708.42c-270.35,-10.1 -516.12,-97.89 -739.53,-270.54 -174.31,-134.71 -256.31,-331.89 -425.61,-538.24 808.39,103.08 975.47,345.51 1129.74,646.02 -107.38,-58.11 -233.63,-119.27 -384.07,-184.73 131.7,137.8 281.79,244.57 419.47,347.49zm-331.27 711.46c-150.31,14.72 -311.35,26.39 -475.31,71.59 140.09,21.18 260.88,34 366.75,40.09 -263.44,163.08 -506.15,273.94 -1131.53,-36.63 225.75,-81.27 384.61,-197.49 577.59,-219.65 247.16,-28.43 465.87,21.43 662.5,144.6zm1630.34 -225.87c-267.12,-44.38 -500.81,-163.69 -703.1,-366.43 -157.89,-158.3 -216.44,-367.15 -360.85,-596.71 790.65,206.23 928.79,471.92 1047.5,794.49 -99.94,-72.17 -218.24,-149.85 -360.1,-234.9 114.95,155.65 251.69,282.28 376.55,403.55zm-190.92 741.89c-160.72,-5.23 -332.51,-14.4 -510.36,5.78 146.8,35.86 273.79,61.94 385.5,80.25 -293.53,112.85 -560.53,181.83 -1196.75,-170.26 246.47,-44.69 424.96,-128.61 631.53,-124.84 264.65,4.86 492.22,75.72 690.08,209.07zm1448.56 49.56c-256.97,-87.86 -469.42,-245.47 -638.11,-481.76 -131.63,-184.49 -157.52,-403.59 -265.03,-657.41 748.99,335.22 844.71,624.24 912.57,967.26 -87.55,-88.71 -192.49,-185.8 -319.53,-294.14 89.74,174.85 205.35,324.13 310.1,466.05zm-569.09 604.32c-140.04,-12.2 -289.54,-28.89 -446.29,-16.06 125.86,42.57 235.07,74.37 331.51,97.65 -263.96,101.56 -501.92,159.77 -1034.52,-223.48 218.38,-34.64 379.99,-111.85 560.21,-99.16 230.9,16.27 425.07,97.71 589.09,241.05zm1492.44 276.06c-240.44,-128.48 -426.22,-319.94 -556.82,-583.5 -101.94,-205.77 -94.03,-429.69 -161.52,-701.28 688.69,453.76 739.21,758.83 753.92,1113.72 -73.02,-102.71 -161.81,-216.6 -270.78,-345.23 61.92,189.49 153.4,357.43 235.2,516.29zm-542.62 422.96c-137.01,-30.98 -282.79,-67.76 -439.65,-75.89 118.86,59.61 222.68,106.2 315.02,142.53 -274.97,66.59 -518.34,93.26 -994.01,-363.15 220.8,-5.52 391.17,-61.41 567.88,-24.55 226.43,47.27 407.65,155.14 550.76,321.06zm1543.04 622.1c-227.17,-165.49 -393.68,-385.69 -498.05,-669.9 -81.42,-221.85 -51.62,-445.23 -92.27,-727.81 642.36,560 662.76,873.55 642.6,1231.6 -62.72,-114.1 -140.14,-241.81 -236.17,-387.46 43.17,199.52 117.9,381.85 183.89,553.57zm-680.19 507.79c-125.52,-63.19 -258.14,-134.18 -408.53,-179.65 100.85,87 190.34,157.59 271.17,215.33 -283.44,-0.26 -526.43,-32.24 -876.97,-594.3 215.92,47.36 395.11,33.11 557.8,111.58 208.42,100.58 358.13,249.82 456.53,447.04zm1483.35 813.69c-190.42,-198.59 -309.37,-442.38 -353.31,-740.22 -34.33,-232.52 41.93,-449.74 60.73,-736.36 519.21,652.88 473.89,967.18 379.09,1319.59 -38.29,-122.74 -88.27,-261.23 -152.94,-420.26 1.02,204.53 36.97,396.75 66.43,577.25zm-618.6 271.89c-124.24,-66.16 -255.45,-140.29 -405.18,-189 98.91,89.72 186.83,162.66 266.43,222.46 -284.44,-5.51 -527.33,-42.29 -864.18,-616.4 215.38,51.82 395.5,40.79 556.67,122.98 206.48,105.44 352.74,258.95 446.26,459.96zm1285.93 1161.11c-157.49,-227.21 -236.84,-488.6 -233.34,-792.66 2.8,-237.34 112.83,-442.59 176.89,-725.78 411.78,730.72 316.98,1037.62 167.16,1374.93 -18.55,-128.37 -46.23,-274.22 -85.21,-442.82 -31.36,204.35 -26.18,401.72 -25.5,586.33zm-834.58 78.83c-114.55,-97.11 -234.92,-203.83 -377.32,-290.41 86.03,113.69 163.42,208.05 234.34,287.34 -282.67,-79.07 -519.6,-178.11 -774.81,-828.75 207.35,106.63 388.44,142.43 537.47,264.92 191,156.88 315.29,345.44 380.32,566.9zm1167.57 1359.66c-107.99,-226.2 -140.87,-472.25 -93.13,-744.9 37.29,-212.81 166.13,-381.73 265.08,-627.2 262.36,714.34 132.33,976.72 -51.58,1258.71 2.17,-117.91 -1.26,-252.84 -11.52,-409.78 -58.08,179.19 -82.39,357.23 -108.85,523.17zm-836.97 -172.31c-102.6,-112.31 -209.65,-234.93 -341.98,-341.24 71.15,124.11 136.28,228.08 196.96,316.35 -276.11,-120.45 -502.86,-253.39 -668.83,-927.62 195.62,135.84 374.63,198.54 508.63,340.9 171.67,182.38 270.92,385.47 305.22,611.61zm947.65 1436.24c-77.36,-259.26 -68.21,-536.44 34.71,-838.78 80.4,-236.01 253.6,-417.71 408.05,-686.73 157.46,814.15 -34.34,1100.36 -289.14,1405.46 24.16,-131.81 45.27,-282.96 62.92,-459.17 -97.11,197.17 -156.76,394.99 -216.54,579.22zm-844.52 -83.49c-72.8,-137.33 -147.24,-285.53 -251.86,-427.64 37.66,137.26 74.85,254.12 111.88,355.16 -246.28,-204.38 -439.14,-403.11 -420.45,-1072.7 160.49,190.64 324.41,309.16 420.69,484.56 123.34,224.71 167.62,443.31 139.74,660.62zm699.06 1522.83c-35.87,-261.26 11.13,-518.74 148.74,-777.69 107.48,-202.11 293.62,-331.33 474.44,-546.86 33.23,800.15 -184.67,1022.93 -463.78,1248.46 40.74,-117.79 81.37,-254.43 122.22,-415.34 -117.56,161.76 -200.42,332.97 -281.62,491.43zm-771.13 -360.33c-54.61,-130.23 -109.58,-271.17 -194.05,-403.38 20.99,133.28 43.69,246.29 68.03,343.64 -213.2,-181.7 -375.95,-362.43 -284.51,-1030.68 132.63,175.6 276.45,279.05 349.37,445.16 93.35,212.84 111.71,426.52 61.16,645.26zm568.81 1579.22c-6.34,-259.97 69.02,-507.23 234.37,-745.89 129.03,-186.27 327.92,-292.48 531.24,-483.78 -56.44,787.99 -297.29,982.29 -599.06,1172.68 53.49,-111.02 109.02,-240.45 167.5,-393.69 -134.65,145.63 -235.91,304.37 -334.05,450.68zm-755.46 -142.99c-43.3,-136.92 -85.74,-284.5 -161.25,-427.4 6.47,135.35 17.35,250.84 31.87,350.85 -209.16,-209.45 -363.62,-411.26 -182.85,-1063.22 122.42,192.54 265.86,314.92 324.72,489.95 75.25,224.23 69.08,439.17 -12.49,649.82zm448.17 1271.89c38.85,-275.92 149.28,-521.66 339.56,-740.01 148.53,-170.34 346.54,-241.97 563.06,-402.56 -186.06,820.65 -437.03,976.78 -742.37,1116.28 67.41,-106.28 139.74,-231.66 218.87,-381.58 -146.64,126.32 -265.35,273.31 -379.12,407.87zm-905.76 -168.11c-19.72,-149.19 -37.07,-309.32 -85.08,-470.33 -13.55,141.29 -20.25,262.64 -21.4,368.72 -159.81,-253.04 -271.06,-488.67 -13.5,-1132.24 83.52,220.47 196.17,372.03 224.39,563.35 36.22,245.17 -0.19,466.61 -104.41,670.5zm-203.6 1091.65c-25.76,-142.48 -49.19,-295.38 -107.04,-448.61 -11.62,135.41 -16.11,251.71 -14.79,353.3 -185.29,-239.37 -315.86,-462.87 -43.32,-1083.47 99.07,209.55 229.07,352.52 265.51,535.15 46.64,234 11.38,446.56 -100.36,643.63zm351.38 -382.1c-19.74,-229.02 30.88,-478.75 157.59,-755.22 98.89,-215.74 262,-388 423.85,-637.48 -4.51,723.4 -198.03,990.17 -443.48,1277.11 39.33,-119.65 79.25,-256.52 120.42,-415.67 -106.13,182.02 -183.29,362.79 -258.38,531.26zm610.19 -1791.88c-63.01,-211.97 -62.11,-441.77 7.99,-695.69 54.76,-198.2 179.62,-354.6 288.69,-582.74 134.27,668.65 -2.16,912.24 -185.07,1173.77 15.11,-110.04 27.64,-235.93 36.98,-382.43 -67.94,166.61 -108.07,332.55 -148.59,487.09zm285.77 -1665.59c-99.52,-216.87 -139.26,-461.54 -115.14,-741.38 18.87,-218.48 114.15,-402.14 181.19,-659.88 250.43,692.98 159.12,971.01 25.31,1274.47 -4.56,-119.15 -14.5,-254.85 -31.19,-411.99 -37.47,186.65 -47.6,368.74 -60.17,538.78zm-17.52 -1886.41c-134.38,-173.16 -215.79,-387.27 -241.55,-650.12 -20.13,-205.23 39.81,-398.28 59.46,-652.03 364.01,570.8 324.53,849.37 248.26,1162.26 -25.33,-108.07 -58.79,-229.96 -102.51,-369.78 -3.47,180.87 18.63,350.45 36.34,509.67zm-371.84 -1659.31c-162.7,-145.31 -280.55,-340.71 -352.31,-594.43 -56.03,-198.06 -31.14,-399.06 -56.64,-652.22 458.76,493.56 469.1,774.84 449.33,1096.73 -43.97,-101.61 -98.4,-215.17 -166.07,-344.54 28.48,178.5 80.22,341.19 125.69,494.46zm-874.89 -1919.31c-166.27,-83.68 -312.81,-215.43 -441.04,-401.99 -100.09,-145.7 -139.35,-309.2 -232.1,-504.2 493.08,302.09 582.47,522.22 660.55,780.11 -62.99,-71.8 -137.4,-151.09 -226.53,-240.3 73.43,135.5 159.98,254.02 239.12,366.38zm-1018.06 -1250.46c-208.34,-57.26 -397.67,-179.75 -570.57,-375.42 -134.92,-152.8 -198.47,-344.63 -329.57,-560.7 623.15,236.94 752.62,485.1 872.39,783.21 -82.91,-71.48 -180.36,-149.04 -296.49,-234.8 101.9,147.6 217.85,270.44 324.24,387.71zm-1265.46 -1162.14c-196.31,-19.35 -385.2,-100.48 -569.97,-250.18 -144.21,-116.86 -229.71,-280.04 -379.76,-454.64 596.97,117.08 750.31,320.82 902.19,571.2 -85.3,-51.62 -184.61,-106.46 -301.97,-165.84 113.65,117.34 236.3,210.19 349.51,299.46zm-1404.24 -864.16c-211.08,36.04 -434.03,4.54 -674.63,-100.65 -187.82,-82.11 -329.21,-230.06 -541.47,-371.52 660.36,-47.9 885.4,123.47 1123.77,344.55 -105.45,-30.05 -226.6,-59.51 -367.99,-88.48 156.01,91.4 313.67,154.3 460.32,216.1zm-2077.29 -673.15c-230.27,78.32 -480.94,91.87 -758.07,36.73 -216.24,-43.02 -388.47,-161.37 -638.27,-258.53 727.03,-181.02 994.03,-56.74 1280.97,114.02 -120,-8.48 -257.33,-13.13 -417.04,-13.27 182.31,58.99 363.53,89.43 532.41,121.05zm6053.8 13613.74c82.44,-269.85 244.5,-506.18 496.15,-711.38 196.51,-160.13 437.42,-220.29 711.99,-367.22 -327.64,798.94 -641.87,939.69 -1017.38,1061.11 93.04,-101.22 194.41,-220.98 306.95,-364.56 -188.26,116.78 -346.71,255.44 -497.71,382.05zm-7725.55 -13818.89c793.89,-237.94 1406.93,-129.69 1737.36,150.38 151.38,128.35 346.53,140.14 537.56,214.34 -246.31,-42.74 -335.07,-62.77 -519.77,-35.95 -282.33,40.91 -563.88,87.74 -798,40.86 -277.6,-55.51 -567.85,-269.84 -957.15,-369.63zm2287.51 372.84c1078.8,-137.23 1178.91,206.02 1594.52,541.23 -263.54,95.53 -544.11,82.27 -853.75,-53.11 -240.83,-105.33 -405.16,-318.86 -740.77,-488.12zm1707.83 576.74c991.03,139.7 987.94,463.42 1266.04,855.97 -258.65,20.08 -503.28,-59.01 -741.08,-251.72 -184.96,-149.81 -273.3,-375.73 -524.96,-604.25zm1314.24 885.33c266.17,85.27 460.5,171.5 606.25,260.41 -118.4,-108.36 -217.07,-240.93 -295.63,-399.53 -130.67,-263.8 -80.84,-557.42 -240.8,-943.12 1183.01,693.99 943.45,1043.68 1018.3,1622.08 -101.66,-34.86 -195.72,-78.13 -282.14,-130.33 235.91,219.73 268.95,460.85 408.65,748.36 -282.44,-26.36 -532.33,-157.03 -754.85,-408.92 -173.03,-195.88 -228.56,-455.91 -459.78,-748.95zm1292.25 1269.79c830.33,456.71 758.14,721.29 915.27,1139.51 -228.78,-72.87 -424.23,-222.18 -589.28,-462.41 -128.36,-186.76 -156.57,-402.7 -325.99,-677.1zm1170.14 1508.75c795.37,770.82 592.33,1056.85 596.85,1587.63 -242.53,-150.9 -411.29,-380.9 -503.65,-707.52 -71.84,-253.95 -10.66,-512.58 -93.2,-880.11zm638.65 1583.09c646.16,906.03 395.95,1149.55 306.71,1672.35 -211.84,-193.51 -337.19,-451.09 -370.43,-789.44 -25.84,-263.19 80.06,-506.17 63.72,-882.91zm311.5 1753.35c461.32,1111.06 176.94,1299.72 -9.33,1809.05 274.65,1083.26 -44.64,1214.37 -314.46,1665.22 -127.82,-260.37 -152.17,-547.33 -61.95,-874.17 69.31,-251.05 251.09,-434.92 370.9,-782.51 -170.77,-258.94 -244.96,-560.21 -213.99,-919.33 24.18,-280.13 173.94,-502.88 228.83,-898.26zm-281.65 3460.6c52.94,1175.44 -306.19,1322.95 -682.7,1817.61 -76.32,-280.4 -39.67,-591.72 123.54,-947.69 126.86,-276.69 358.86,-481.4 559.16,-869.92zm-926.37 -514.9c74.41,343.93 249.38,523.64 285.62,768.96 46.57,315.5 -27.17,591.9 -210.97,842.04 -225.38,-436.75 -557.92,-564.76 -74.65,-1611zm2071.77 226.64c-245.04,1379.43 -623.42,1273.26 -1105.56,1549.31 -2.11,-377.77 110.51,-704.3 355.54,-985.31 190.46,-218.49 462.01,-274.38 750.02,-564zm-1843.62 -1218.1c131,310.32 345.58,448.02 420.92,672.43 96.92,288.62 58.87,561.97 -101.23,830.41 -306.9,-370.55 -682.91,-431.3 -319.69,-1502.84zm1975.04 0.71c-22.6,1310.57 -444.94,1291.59 -911.8,1643.13 -67.75,-344.61 -4.05,-666.09 208.84,-973.29 165.48,-238.83 445.72,-345.88 702.96,-669.84zm-1909.86 -1378.08c165.45,315.29 391.86,434.27 492.54,664.86 129.47,296.53 125.08,594.82 0.71,904.17 -344.66,-356.33 -719.76,-371.14 -493.25,-1569.03zm1938.5 53.22c126.3,1322.81 -296.66,1350.95 -721.96,1757.38 -106.63,-339.59 -79.64,-670.65 97.58,-1003.89 137.79,-259.15 404.79,-398.38 624.38,-753.49zm-2041.13 -1281.04c195.98,309.91 430.62,441.12 554.1,666.04 158.71,289.28 186.51,568.53 97.96,847.72 -376.05,-364.05 -745.19,-410.58 -652.06,-1513.76zm1964.41 -380.41c334.32,1327.31 -100.04,1467.06 -478.64,1996.52 -162.76,-321.33 -185.68,-668.82 -53.13,-1057.99 103.03,-302.61 358.64,-515.77 531.77,-938.53zm-2369.94 -742.41c259.93,242.79 505.65,294.24 677.47,476.8 221.01,234.73 321.98,503.83 318.88,812.28 -435.76,-235.8 -778.77,-157.23 -996.35,-1289.08zm1942.42 -333.8c497.45,1160.97 127.55,1304.72 -134.4,1791.18 -194.02,-277.3 -266.14,-584.23 -204.66,-935.17 47.81,-272.91 246.1,-473.45 339.06,-856.01zm-2397.09 -709.53c284.37,204.13 528.04,218.58 719.21,375.61 245.8,201.95 381.13,456.43 421.91,766 -452.56,-170.59 -771.31,-40.07 -1141.12,-1141.61zm1784.34 -892.01c746.58,1175.6 370.09,1394.45 171.65,1966.92 -260.02,-268.05 -392.82,-588.89 -388.25,-980.24 3.53,-304.32 183.4,-555.62 216.6,-986.68zm-2337.21 -50.96c303.33,127.95 541.1,79.92 747.72,185.41 265.69,135.64 431.82,351.13 514.01,644.87 -461.44,-52.02 -751.77,157.59 -1261.73,-830.28zm1390.36 -1320.44c918.09,1037.67 581.8,1308.16 475.91,1897.85 -297.7,-223.14 -478.46,-516.98 -535.05,-900.43 -44.01,-298.09 93.76,-570.88 59.14,-997.42zm-2268.76 263.86c305.59,121.07 541.2,69.21 749.75,169.86 268.27,129.4 439.36,339.65 528.9,628.87 -461.02,-43.05 -744.8,169.67 -1278.65,-798.73zm1115.64 -1480.38c1111.69,876.21 838.5,1190.31 856.34,1781.62 -337.15,-173.41 -574.47,-433.38 -708.78,-799.23 -104.45,-284.43 -25.89,-571.22 -147.56,-982.39zm-2102.93 663.29c325.57,44.02 541.49,-61.28 768.12,-13.96 291.41,60.86 508.06,222.12 664.77,478.38 -457.54,67.48 -681.38,338.43 -1432.89,-464.42zm-1056.75 -533.64c351.14,-0.05 603.36,-131.57 850.15,-115.36 317.33,20.94 774.45,277.9 976.82,507.76 -436.76,-7.91 -916.97,293.11 -1826.97,-392.4zm872.83 -1727.21c1273.72,492.69 1089.5,869.9 1250.38,1421.09 -363.81,-62.56 -653.44,-236.33 -870.58,-540.59 -168.84,-236.47 -163.67,-529.79 -379.8,-880.5zm-1887.56 1161.33c375.07,-15.94 593.7,-155.29 858.55,-150.43 340.61,6.22 619.94,121.93 853.35,339.33 -498.1,146.2 -688.32,445.61 -1711.9,-188.9zm445.94 -1734.4c1332.98,275.49 1207.63,671.6 1449.59,1181.71 -369.02,-2.78 -681.43,-125.38 -941.8,-386.47 -202.44,-202.94 -241.44,-488.93 -507.79,-795.24zm-1788.14 1408.46c348.39,-65.68 539.87,-249.01 786.96,-277.15 317.89,-36.22 589.23,56.54 826.7,268.73 -451.16,226.34 -601.29,583.89 -1613.66,8.42zm375.09 -1704.63c1354.67,103.24 1274.89,506 1572.62,974.4 -366.68,43.26 -690.76,-37.7 -978.7,-260.4 -223.93,-173.12 -294.88,-447.8 -593.92,-714z"/>
  </g>
 </g>
</svg>
